<svg width="144" height="144" viewBox="0 0 144 144" fill="none" xmlns="http://www.w3.org/2000/svg">
<path d="M98.232 69.726C107.652 69.726 114 76.278 114 85.986C114 94.722 106.704 102 96.822 102C85.998 102 78 93.264 78 79.92C78 49.59 100.116 37.458 114 36V49.344C104.586 51.042 94.002 60.504 93.528 70.944C94.002 70.704 95.88 69.726 98.232 69.726ZM50.238 69.726C59.646 69.726 66 76.278 66 85.986C66 94.722 58.704 102 48.822 102C37.998 102 30 93.264 30 79.92C30 49.59 52.116 37.458 66 36V49.344C56.586 51.042 46.002 60.504 45.528 70.944C46.002 70.704 47.88 69.726 50.238 69.726V69.726Z" fill="white"/>
</svg>
