<svg width="52" height="52" viewBox="0 0 52 52" fill="none" xmlns="http://www.w3.org/2000/svg">
<path d="M42.2067 26.7583C38.8051 17.9183 26.6934 17.4417 29.6184 4.59333C29.8351 3.63999 28.8167 2.90333 27.9934 3.40166C20.1284 8.03833 14.4734 17.3333 19.2184 29.51C19.6084 30.5067 18.4384 31.4383 17.5934 30.7883C13.6717 27.82 13.2601 23.5517 13.6067 20.4967C13.7367 19.37 12.2634 18.8283 11.6351 19.76C10.1617 22.0133 8.66675 25.6533 8.66675 31.135C9.49008 43.2683 19.7384 46.995 23.4217 47.4717C28.6867 48.1433 34.3851 47.1683 38.4801 43.42C42.9867 39.2383 44.6334 32.565 42.2067 26.7583V26.7583ZM22.1001 37.6567C25.2201 36.8983 26.8234 34.645 27.2567 32.6517C27.9717 29.5533 25.1767 26.52 27.0617 21.6233C27.7767 25.675 34.1467 28.21 34.1467 32.63C34.3201 38.1117 28.3834 42.8133 22.1001 37.6567V37.6567Z" fill="#006CB7"/>
<path d="M42.2067 26.7583C38.8051 17.9183 26.6934 17.4417 29.6184 4.59333C29.8351 3.63999 28.8167 2.90333 27.9934 3.40166C20.1284 8.03833 14.4734 17.3333 19.2184 29.51C19.6084 30.5067 18.4384 31.4383 17.5934 30.7883C13.6717 27.82 13.2601 23.5517 13.6067 20.4967C13.7367 19.37 12.2634 18.8283 11.6351 19.76C10.1617 22.0133 8.66675 25.6533 8.66675 31.135C9.49008 43.2683 19.7384 46.995 23.4217 47.4717C28.6867 48.1433 34.3851 47.1683 38.4801 43.42C42.9867 39.2383 44.6334 32.565 42.2067 26.7583V26.7583ZM22.1001 37.6567C25.2201 36.8983 26.8234 34.645 27.2567 32.6517C27.9717 29.5533 25.1767 26.52 27.0617 21.6233C27.7767 25.675 34.1467 28.21 34.1467 32.63C34.3201 38.1117 28.3834 42.8133 22.1001 37.6567V37.6567Z" fill="#006CB7"/>
</svg>
