<svg width="49" height="48" viewBox="0 0 49 48" fill="none" xmlns="http://www.w3.org/2000/svg">
<g clip-path="url(#clip0_40_9524)">
<path d="M42.176 0.486755H7.24777C3.82477 0.486755 1.04077 3.27076 1.04077 6.69525V41.6198C1.04077 45.0443 3.82477 47.8298 7.24777 47.8298H42.176C45.5983 47.8298 48.3838 45.0443 48.3838 41.6198V6.69525C48.3838 3.27151 45.5983 0.486755 42.176 0.486755V0.486755ZM33.5128 12.7875C33.6623 12.7876 33.8103 12.8171 33.9484 12.8745C34.0865 12.9318 34.2119 13.0157 34.3176 13.1215C34.4232 13.2273 34.507 13.3528 34.5641 13.491C34.6213 13.6292 34.6506 13.7772 34.6505 13.9268C34.6504 14.0763 34.6209 14.2243 34.5636 14.3624C34.5063 14.5005 34.4223 14.6259 34.3165 14.7316C34.2107 14.8372 34.0852 14.921 33.947 14.9781C33.8088 15.0353 33.6608 15.0646 33.5113 15.0645C33.2093 15.0643 32.9198 14.9442 32.7065 14.7305C32.4931 14.5169 32.3733 14.2272 32.3735 13.9253C32.3737 13.6233 32.4939 13.3338 32.7075 13.1204C32.9212 12.9071 33.2108 12.7873 33.5128 12.7875V12.7875ZM25.4525 5.547C25.8768 5.55613 26.2807 5.73109 26.5775 6.0344C26.8744 6.3377 27.0406 6.74523 27.0406 7.16963C27.0406 7.59403 26.8744 8.00156 26.5775 8.30486C26.2807 8.60817 25.8768 8.78313 25.4525 8.79225C25.0282 8.78313 24.6244 8.60817 24.3275 8.30486C24.0307 8.00156 23.8644 7.59403 23.8644 7.16963C23.8644 6.74523 24.0307 6.3377 24.3275 6.0344C24.6244 5.73109 25.0282 5.55613 25.4525 5.547V5.547ZM16.652 5.535C17.561 5.535 18.2998 6.2655 18.2998 7.167C18.299 7.3825 18.2557 7.59572 18.1725 7.79448C18.0892 7.99324 17.9676 8.17364 17.8145 8.32535C17.6615 8.47706 17.4801 8.59712 17.2806 8.67865C17.0811 8.76018 16.8675 8.80159 16.652 8.8005C16.4367 8.80139 16.2233 8.75983 16.024 8.67821C15.8248 8.59658 15.6436 8.47648 15.4907 8.32477C15.3379 8.17307 15.2165 7.99273 15.1334 7.79408C15.0503 7.59542 15.0072 7.38234 15.0065 7.167C15.0065 6.2655 15.7423 5.535 16.652 5.535V5.535ZM21.839 39.4688L21.8315 42.357H14.9975V41.1435C14.9975 40.3568 14.8453 39.837 14.222 39.2505L7.94302 32.583C7.04009 31.5276 6.54354 30.1845 6.54277 28.7955V18.7268C6.54277 18.225 6.74203 17.7438 7.09673 17.389C7.45144 17.0342 7.93255 16.8347 8.43427 16.8345C8.93741 16.8337 9.42033 17.0325 9.77716 17.3872C10.134 17.7419 10.3356 18.2236 10.3378 18.7268V26.079C9.33202 26.5373 8.72452 27.4665 8.72452 28.4775C8.72452 29.1503 8.99302 29.7908 9.48352 30.285L13.3835 34.5653C13.565 34.7903 13.8058 35.1398 13.9265 35.529C13.9933 35.7368 14.0143 35.961 14.0188 36.24H15.2555C15.2488 35.8485 15.2173 35.5073 15.104 35.157C14.8948 34.4828 14.4733 33.933 14.2243 33.6405L10.382 29.5245C10.1241 29.2299 9.99055 28.8466 10.0096 28.4555C10.0287 28.0643 10.1988 27.6959 10.4842 27.4277C10.7695 27.1595 11.1479 27.0126 11.5394 27.0179C11.931 27.0232 12.3052 27.1802 12.5833 27.456L20.5498 35.4555C21.926 36.8978 21.836 38.3678 21.836 39.4673L21.839 39.4688ZM26.0188 24.474V17.1473H25.3153V24.474C25.3153 25.0005 24.8893 25.4258 24.3635 25.4258C23.8385 25.4258 23.408 25.0005 23.408 24.474V11.5965L22.8418 11.598L21.5998 15.9338C21.5806 16.0154 21.5443 16.0921 21.4933 16.1588C21.4297 16.2499 21.3437 16.3232 21.2436 16.3715C21.1435 16.4198 21.0327 16.4416 20.9218 16.4348C20.8103 16.4414 20.6989 16.4191 20.5985 16.3701C20.4981 16.3211 20.4121 16.247 20.3488 16.155C20.304 16.0944 20.271 16.026 20.2513 15.9533L19.0033 11.598L18.3905 11.5965L20.2138 19.2173H18.6133V24.6308C18.6131 24.7371 18.5919 24.8424 18.551 24.9406C18.5102 25.0388 18.4503 25.128 18.375 25.2031C18.2996 25.2781 18.2102 25.3376 18.1119 25.3782C18.0135 25.4187 17.9081 25.4395 17.8018 25.4393C17.6958 25.4391 17.5909 25.418 17.4931 25.3773C17.3952 25.3365 17.3064 25.2769 17.2316 25.2018C17.1568 25.1268 17.0975 25.0377 17.0571 24.9397C17.0168 24.8417 16.9961 24.7367 16.9963 24.6308V19.2173H16.313V24.6308C16.313 25.0763 15.9485 25.4393 15.503 25.4393C15.397 25.4392 15.292 25.4182 15.1941 25.3775C15.0962 25.3368 15.0072 25.2772 14.9323 25.2021C14.8575 25.127 14.7981 25.0379 14.7577 24.9399C14.7173 24.8418 14.6966 24.7368 14.6968 24.6308V19.2173H13.0678L14.9105 11.5965L14.2955 11.598L13.0325 15.999C12.9373 16.3358 12.56 16.5218 12.191 16.416C11.8213 16.3095 11.5903 15.9885 11.7133 15.5655L13.0093 11.0498C13.5268 9.24525 15.0395 9.30075 15.0395 9.30075H18.2593C18.2593 9.30075 19.7683 9.24525 20.2888 11.0498L20.9218 13.2563L21.5563 11.0498C22.0738 9.24525 23.5858 9.30075 23.5858 9.30075H27.7468C27.7468 9.30075 29.2595 9.24525 29.777 11.0498L31.0625 15.5303C31.0625 15.5303 32.0758 15.6225 32.09 15.6225H35.1598C35.9653 15.6225 36.674 16.2758 36.674 17.0813V19.9568C36.674 20.2343 36.4573 20.4578 36.182 20.4578C36.1164 20.4576 36.0515 20.4444 35.991 20.4192C35.9305 20.3939 35.8755 20.3569 35.8293 20.3104C35.783 20.2639 35.7464 20.2087 35.7215 20.148C35.6966 20.0873 35.6838 20.0223 35.684 19.9568V17.4293H35.1703V24.8895C35.1703 25.2585 34.8673 25.557 34.499 25.557C34.1308 25.557 33.8315 25.2578 33.8315 24.8895V20.8995H33.3073V24.8895C33.3015 25.0632 33.2284 25.2278 33.1035 25.3485C32.9786 25.4693 32.8116 25.5368 32.6379 25.5368C32.4641 25.5368 32.2972 25.4693 32.1723 25.3485C32.0474 25.2278 31.9743 25.0632 31.9685 24.8895V16.9028C31.316 16.7168 30.4288 16.4648 30.236 16.4213C30.2278 16.419 30.2233 16.4145 30.2143 16.4123C29.9975 16.3568 29.816 16.2143 29.7508 15.9975L28.5425 11.5965L27.9268 11.595V24.4725C27.9268 24.999 27.4955 25.4243 26.969 25.4243C26.8441 25.4242 26.7205 25.3995 26.6051 25.3516C26.4898 25.3037 26.385 25.2336 26.2968 25.1452C26.2085 25.0568 26.1386 24.9519 26.0909 24.8365C26.0432 24.7211 26.0187 24.5974 26.0188 24.4725V24.474ZM42.9238 28.7955C42.9233 30.1845 42.4268 31.5277 41.5235 32.583L35.2453 39.2505C34.622 39.837 34.4698 40.3568 34.4698 41.1435V42.357H27.6358L27.6283 39.4688C27.6283 38.3685 27.5383 36.8985 28.9145 35.457L36.881 27.4575C37.1585 27.1791 37.5335 27.0198 37.9265 27.0133C38.3195 27.0069 38.6996 27.1538 38.9861 27.4229C39.2726 27.692 39.4429 28.0621 39.461 28.4548C39.4791 28.8474 39.3435 29.2317 39.083 29.526L35.2408 33.642C34.9918 33.9338 34.5703 34.4843 34.361 35.1585C34.2478 35.5088 34.2163 35.85 34.2095 36.2415H35.4463C35.4508 35.9625 35.4718 35.7383 35.5385 35.5305C35.6593 35.142 35.9008 34.7918 36.0815 34.5668L39.9815 30.2858C40.2208 30.0493 40.4111 29.7679 40.5413 29.4577C40.6716 29.1475 40.7393 28.8147 40.7405 28.4783C40.7398 27.468 40.133 26.538 39.1273 26.0798V18.7275C39.1295 18.2244 39.3311 17.7426 39.6879 17.3879C40.0447 17.0332 40.5276 16.8345 41.0308 16.8353C41.5325 16.8355 42.0136 17.0349 42.3683 17.3897C42.723 17.7446 42.9223 18.2258 42.9223 18.7275V28.7963L42.9238 28.7955Z" fill="white"/>
</g>
<defs>
<clipPath id="clip0_40_9524">
<rect width="48" height="48" fill="white" transform="translate(0.5)"/>
</clipPath>
</defs>
</svg>
