<svg width="23" height="16" viewBox="0 0 23 16" fill="none" xmlns="http://www.w3.org/2000/svg">
<path d="M21.5406 2.42C21.4218 1.94541 21.1799 1.51057 20.8392 1.15941C20.4986 0.808241 20.0713 0.553185 19.6006 0.42C17.8806 8.9407e-08 11.0006 0 11.0006 0C11.0006 0 4.12057 2.98023e-08 2.40057 0.46C1.92982 0.593185 1.50255 0.848241 1.16192 1.19941C0.821288 1.55057 0.57936 1.98541 0.460572 2.46C0.145786 4.20556 -0.00819243 5.97631 0.000571645 7.75C-0.0106491 9.53705 0.143339 11.3213 0.460572 13.08C0.591531 13.5398 0.838878 13.9581 1.17872 14.2945C1.51855 14.6308 1.93939 14.8738 2.40057 15C4.12057 15.46 11.0006 15.46 11.0006 15.46C11.0006 15.46 17.8806 15.46 19.6006 15C20.0713 14.8668 20.4986 14.6118 20.8392 14.2606C21.1799 13.9094 21.4218 13.4746 21.5406 13C21.8529 11.2676 22.0069 9.51033 22.0006 7.75C22.0118 5.96295 21.8578 4.1787 21.5406 2.42V2.42Z" fill="#006CB8"/>
</svg>
