<svg width="30" height="30" viewBox="0 0 30 30" fill="none" xmlns="http://www.w3.org/2000/svg">
<path d="M25.7812 8.74219H15.2637L11.8271 5.45508C11.7834 5.41414 11.7259 5.39114 11.666 5.39062H4.21875C3.7002 5.39062 3.28125 5.80957 3.28125 6.32812V23.6719C3.28125 24.1904 3.7002 24.6094 4.21875 24.6094H25.7812C26.2998 24.6094 26.7188 24.1904 26.7188 23.6719V9.67969C26.7188 9.16113 26.2998 8.74219 25.7812 8.74219ZM18.5156 16.9043C18.5156 17.0156 18.416 17.1094 18.2959 17.1094H15.8203V19.5967C15.8203 19.7109 15.7266 19.8047 15.6152 19.8047H14.3848C14.2734 19.8047 14.1797 19.7109 14.1797 19.5967V17.1094H11.7041C11.584 17.1094 11.4844 17.0156 11.4844 16.9043V15.6738C11.4844 15.5625 11.584 15.4688 11.7041 15.4688H14.1797V12.9814C14.1797 12.8672 14.2734 12.7734 14.3848 12.7734H15.6152C15.7266 12.7734 15.8203 12.8672 15.8203 12.9814V15.4688H18.2959C18.416 15.4688 18.5156 15.5625 18.5156 15.6738V16.9043Z" fill="#006CB8"/>
</svg>
