<svg width="19" height="19" viewBox="0 0 19 19" fill="none" xmlns="http://www.w3.org/2000/svg">
<path d="M9.5 1.1875C4.90957 1.1875 1.1875 4.90957 1.1875 9.5C1.1875 14.0904 4.90957 17.8125 9.5 17.8125C14.0904 17.8125 17.8125 14.0904 17.8125 9.5C17.8125 4.90957 14.0904 1.1875 9.5 1.1875ZM13.0625 9.94531C13.0625 10.027 12.9957 10.0938 12.9141 10.0938H10.0938V12.9141C10.0938 12.9957 10.027 13.0625 9.94531 13.0625H9.05469C8.97305 13.0625 8.90625 12.9957 8.90625 12.9141V10.0938H6.08594C6.0043 10.0938 5.9375 10.027 5.9375 9.94531V9.05469C5.9375 8.97305 6.0043 8.90625 6.08594 8.90625H8.90625V6.08594C8.90625 6.0043 8.97305 5.9375 9.05469 5.9375H9.94531C10.027 5.9375 10.0938 6.0043 10.0938 6.08594V8.90625H12.9141C12.9957 8.90625 13.0625 8.97305 13.0625 9.05469V9.94531Z" fill="#006CB8"/>
</svg>
