<svg width="19" height="19" viewBox="0 0 19 19" fill="none" xmlns="http://www.w3.org/2000/svg">
<path d="M9.3125 1C4.72207 1 1 4.72207 1 9.3125C1 13.9029 4.72207 17.625 9.3125 17.625C13.9029 17.625 17.625 13.9029 17.625 9.3125C17.625 4.72207 13.9029 1 9.3125 1Z" fill="#006CB8"/>
<path d="M12.5634 8.96921H11.0096C10.8203 8.96921 10.6524 9.07911 10.5943 9.24165C10.4404 9.67159 10.0004 9.9602 9.5 9.9602C8.99941 9.9602 8.55961 9.67159 8.40578 9.24165C8.34756 9.07911 8.17982 8.96921 7.99031 8.96921H6.43665C6.19549 8.96921 6 9.14518 6 9.36267V11.6067C6 11.8238 6.19549 12 6.43665 12H12.5634C12.8048 12 13 11.8238 13 11.6067V9.36267C12.9999 9.14518 12.8046 8.96921 12.5634 8.96921V8.96921Z" fill="white"/>
<path d="M8.28858 7.74225H8.85651V9.1171C8.85651 9.17589 8.90918 9.22317 8.97398 9.22317H10.0254C10.0905 9.22317 10.1429 9.17589 10.1429 9.1171V7.74225H10.7113C10.7551 7.74225 10.7954 7.71993 10.8155 7.68497C10.8254 7.66779 10.8299 7.64831 10.8283 7.62883C10.8268 7.60934 10.8193 7.59069 10.8068 7.57507L9.59143 6.04423C9.58025 6.03043 9.56581 6.01925 9.54923 6.01157C9.53265 6.0039 9.5144 5.99994 9.4959 6H9.49565C9.45766 6 9.42232 6.01656 9.40012 6.04463L8.19262 7.57515C8.18024 7.59083 8.17287 7.60949 8.17136 7.62894C8.16985 7.6484 8.17426 7.66786 8.18409 7.68505C8.20415 7.72033 8.2447 7.74225 8.28858 7.74225V7.74225Z" fill="white"/>
</svg>
