<svg width="19" height="19" viewBox="0 0 19 19" fill="none" xmlns="http://www.w3.org/2000/svg">
<path d="M9.3125 1C4.72207 1 1 4.72207 1 9.3125C1 13.9029 4.72207 17.625 9.3125 17.625C13.9029 17.625 17.625 13.9029 17.625 9.3125C17.625 4.72207 13.9029 1 9.3125 1Z" fill="#006CB8"/>
<path d="M12.8949 6.60724L10.4449 4.10727C10.4141 4.07237 10.3763 4.04472 10.334 4.02622C10.2917 4.00772 10.2459 3.99882 10.1999 4.00013H6.69999C6.51451 4.00069 6.33679 4.07613 6.20563 4.20996C6.07448 4.34379 6.00055 4.52514 6 4.7144V13.2857C6.00055 13.475 6.07448 13.6563 6.20563 13.7902C6.33679 13.924 6.51451 13.9994 6.69999 14H12.2999C12.4854 13.9994 12.6631 13.924 12.7942 13.7902C12.9254 13.6563 12.9993 13.475 12.9999 13.2857V6.85723C13.0012 6.81029 12.9924 6.76362 12.9743 6.72046C12.9562 6.67729 12.9291 6.63866 12.8949 6.60724ZM10.1999 4.85726L12.1599 6.85723H10.1999V4.85726ZM12.2999 13.2857H6.69999V4.7144H9.49994V6.85723C9.50049 7.0465 9.57442 7.22785 9.70557 7.36168C9.83672 7.49551 10.0144 7.57094 10.1999 7.57151H12.2999V10.4286V13.2857Z" fill="white"/>
</svg>
