<svg width="30" height="30" viewBox="0 0 30 30" fill="none" xmlns="http://www.w3.org/2000/svg">
<path d="M23.7387 2.5H11.2625C9.87375 2.5 8.75 3.62375 8.75 5.0125V12.0588L2.8725 17.8612C2.69639 18.0354 2.576 18.258 2.5266 18.5007C2.4772 18.7434 2.50102 18.9953 2.59504 19.2245C2.68906 19.4536 2.84903 19.6497 3.05466 19.7878C3.2603 19.9258 3.50231 19.9997 3.75 20V26.25C3.75 26.5815 3.8817 26.8995 4.11612 27.1339C4.35054 27.3683 4.66848 27.5 5 27.5H25C25.3315 27.5 25.6495 27.3683 25.8839 27.1339C26.1183 26.8995 26.25 26.5815 26.25 26.25V5.01125C26.25 3.62375 25.1275 2.5 23.7387 2.5ZM13.6525 18.8888V25H6.25V18.04L9.98375 14.3537L13.6525 18.1075V18.8888V18.8888ZM16.25 11.25H13.75V8.75H16.25V11.25ZM21.25 21.25H18.75V18.75H21.25V21.25ZM21.25 16.25H18.75V13.75H21.25V16.25ZM21.25 11.25H18.75V8.75H21.25V11.25Z" fill="#006CB8"/>
<path d="M8.75 18.75H11.25V21.25H8.75V18.75Z" fill="#006CB8"/>
</svg>
