<svg width="30" height="30" viewBox="0 0 30 30" fill="none" xmlns="http://www.w3.org/2000/svg">
<path d="M1.875 20.625C1.875 20.1277 2.07254 19.6508 2.42417 19.2992C2.77581 18.9475 3.25272 18.75 3.75 18.75H7.5C7.99728 18.75 8.47419 18.9475 8.82582 19.2992C9.17746 19.6508 9.375 20.1277 9.375 20.625V26.25C9.375 26.7473 9.17746 27.2242 8.82582 27.5758C8.47419 27.9275 7.99728 28.125 7.5 28.125H3.75C3.25272 28.125 2.77581 27.9275 2.42417 27.5758C2.07254 27.2242 1.875 26.7473 1.875 26.25V20.625ZM11.25 13.125C11.25 12.6277 11.4475 12.1508 11.7992 11.7992C12.1508 11.4475 12.6277 11.25 13.125 11.25H16.875C17.3723 11.25 17.8492 11.4475 18.2008 11.7992C18.5525 12.1508 18.75 12.6277 18.75 13.125V26.25C18.75 26.7473 18.5525 27.2242 18.2008 27.5758C17.8492 27.9275 17.3723 28.125 16.875 28.125H13.125C12.6277 28.125 12.1508 27.9275 11.7992 27.5758C11.4475 27.2242 11.25 26.7473 11.25 26.25V13.125ZM20.625 3.75C20.625 3.25272 20.8225 2.77581 21.1742 2.42417C21.5258 2.07254 22.0027 1.875 22.5 1.875H26.25C26.7473 1.875 27.2242 2.07254 27.5758 2.42417C27.9275 2.77581 28.125 3.25272 28.125 3.75V26.25C28.125 26.7473 27.9275 27.2242 27.5758 27.5758C27.2242 27.9275 26.7473 28.125 26.25 28.125H22.5C22.0027 28.125 21.5258 27.9275 21.1742 27.5758C20.8225 27.2242 20.625 26.7473 20.625 26.25V3.75Z" fill="#006CB8"/>
</svg>
