<svg width="171" height="171" viewBox="0 0 171 171" fill="none" xmlns="http://www.w3.org/2000/svg">
<g clip-path="url(#clip0_40_6288)">
<path d="M18.7605 119.689C17.6974 117.127 16.374 114.58 15.9869 111.816C10.8873 76.1737 39.9665 47.2765 66.3598 36.3007C92.7527 25.3251 123.142 42.7842 141.158 24.043C145.66 18.9605 150.241 14.1474 157.085 14.1116C159.937 14.2531 162.313 15.5938 163.527 17.959C186.046 64.0845 153.872 118.777 117.538 138.21C94.4796 149.607 70.6198 152.114 48.2862 144.383C42.0758 142.91 37.0978 136.415 30.6602 136.331C26.2208 138.822 22.5336 146.937 19.521 151.407C16.0119 157.497 9.02473 159.107 3.99747 153.778C-10.6656 139.328 19.8068 126.502 18.7605 119.689V119.689ZM38.3551 113.784C41.5042 116.328 46.0469 115.607 48.4655 113.068C67.8014 89.6401 93.9838 79.3618 122.459 80.1423C126.655 80.3858 129.705 76.9879 129.974 73.3425C130.059 69.0132 126.727 66.0854 122.995 65.8267C88.5798 63.9137 58.7216 79.0885 37.6389 103.584C34.9687 106.919 35.4535 111.355 38.3551 113.784V113.784Z" fill="white"/>
</g>
<defs>
<clipPath id="clip0_40_6288">
<rect width="171" height="171" fill="white"/>
</clipPath>
</defs>
</svg>
