<svg width="30" height="30" viewBox="0 0 30 30" fill="none" xmlns="http://www.w3.org/2000/svg">
<path d="M3.75 26.25V3.75H26.25V26.25H3.75ZM12.2963 16.6612L16.0462 19.6613L21.3244 13.7494L19.9256 12.5006L15.8288 17.0888L12.0787 14.0887L6.80063 20.0006L8.19938 21.2494L12.2963 16.6612V16.6612ZM23.9062 10.3125C23.9062 9.93954 23.7581 9.58185 23.4944 9.31813C23.2306 9.05441 22.873 8.90625 22.5 8.90625C22.127 8.90625 21.7694 9.05441 21.5056 9.31813C21.2419 9.58185 21.0938 9.93954 21.0938 10.3125C21.0938 10.6855 21.2419 11.0431 21.5056 11.3069C21.7694 11.5706 22.127 11.7187 22.5 11.7188C22.873 11.7187 23.2306 11.5706 23.4944 11.3069C23.7581 11.0431 23.9062 10.6855 23.9062 10.3125Z" fill="#006CB8"/>
</svg>
