<svg width="240" height="192" viewBox="0 0 240 192" fill="none" xmlns="http://www.w3.org/2000/svg">
<path d="M69 33.0519C69 44.6394 59.5875 54.0519 48 54.0519C36.4012 54.0519 27 44.6394 27 33.0519C27 21.4532 36.4012 12.0519 48 12.0519C59.5875 12.0519 69 21.4532 69 33.0519ZM78.15 73.6644C67.0125 83.5644 60 98.0019 60 114.052C60 126.914 64.1625 138.727 72 147.989V156.052C72 162.689 66.6375 168.052 60 168.052H36C29.3737 168.052 24 162.689 24 156.052V146.002C9.81 139.252 0 124.814 0 108.052C0 84.8394 18.8025 66.0519 42 66.0519H54C62.6625 66.0519 71.325 68.8644 78.15 73.6644ZM24 92.1894C20.265 96.3894 18 101.977 18 108.052C18 114.127 20.265 119.714 24 123.914V92.1894V92.1894ZM168 156.052V147.989C175.5 138.727 180 126.914 180 114.052C180 98.0019 172.988 83.5644 161.85 73.6644C168.675 68.8644 177 66.0519 186 66.0519H198C221.213 66.0519 240 84.8394 240 108.052C240 124.814 230.175 139.252 216 146.002V156.052C216 162.689 210.638 168.052 204 168.052H180C173.362 168.052 168 162.689 168 156.052ZM216 123.914C219.413 119.714 222 114.127 222 108.052C222 101.977 219.413 96.3894 216 92.1894V123.914V123.914ZM213 33.0519C213 44.6394 203.587 54.0519 192 54.0519C180.413 54.0519 171 44.6394 171 33.0519C171 21.4532 180.413 12.0519 192 12.0519C203.587 12.0519 213 21.4532 213 33.0519ZM96 36.0519C96 22.7957 106.763 12.0519 120 12.0519C133.237 12.0519 144 22.7957 144 36.0519C144 49.2894 133.237 60.0519 120 60.0519C106.763 60.0519 96 49.2894 96 36.0519ZM168 114.052C168 130.814 158.175 145.252 144 152.002V168.052C144 174.689 138.638 180.052 132 180.052H108C101.362 180.052 96 174.689 96 168.052V152.002C81.825 145.252 72 130.814 72 114.052C72 90.8394 90.7875 72.0519 114 72.0519H126C149.213 72.0519 168 90.8394 168 114.052ZM96 129.914V98.1894C92.25 102.389 90 107.977 90 114.052C90 120.127 92.25 125.714 96 129.914V129.914ZM144 98.1894V129.914C147.413 125.677 150 120.127 150 114.052C150 107.977 147.413 102.389 144 98.1894Z" fill="white"/>
</svg>
