<svg width="63" height="63" viewBox="0 0 63 63" fill="none" xmlns="http://www.w3.org/2000/svg">
<path d="M37.065 10.5L41.8687 15.75H52.5V47.25H10.5V15.75H21.1313L25.935 10.5H37.065V10.5ZM39.375 5.25H23.625L18.8213 10.5H10.5C7.6125 10.5 5.25 12.8625 5.25 15.75V47.25C5.25 50.1375 7.6125 52.5 10.5 52.5H52.5C55.3875 52.5 57.75 50.1375 57.75 47.25V15.75C57.75 12.8625 55.3875 10.5 52.5 10.5H44.1787L39.375 5.25ZM31.5 23.625C35.8312 23.625 39.375 27.1688 39.375 31.5C39.375 35.8312 35.8312 39.375 31.5 39.375C27.1688 39.375 23.625 35.8312 23.625 31.5C23.625 27.1688 27.1688 23.625 31.5 23.625ZM31.5 18.375C24.255 18.375 18.375 24.255 18.375 31.5C18.375 38.745 24.255 44.625 31.5 44.625C38.745 44.625 44.625 38.745 44.625 31.5C44.625 24.255 38.745 18.375 31.5 18.375Z" fill="white"/>
</svg>
