<svg width="171" height="171" viewBox="0 0 171 171" fill="none" xmlns="http://www.w3.org/2000/svg">
<path fill-rule="evenodd" clip-rule="evenodd" d="M93.5156 8.01562C93.5156 5.88975 92.6711 3.85094 91.1679 2.34772C89.6647 0.844501 87.6259 0 85.5 0C83.3741 0 81.3353 0.844501 79.8321 2.34772C78.3289 3.85094 77.4844 5.88975 77.4844 8.01562V21.375H66.9679C63.7082 21.375 60.5126 22.23 57.6804 23.8331L43.9149 31.7098C43.5082 31.9425 43.0475 32.0641 42.579 32.0625H18.7031C16.5772 32.0625 14.5384 32.907 13.0352 34.4102C11.532 35.9134 10.6875 37.9522 10.6875 40.0781C10.6875 42.204 11.532 44.2428 13.0352 45.746C14.5384 47.2493 16.5772 48.0938 18.7031 48.0938H23.2774L0.705354 98.2395C0.0386462 99.723 -0.160976 101.374 0.132998 102.974C0.426972 104.574 1.20063 106.046 2.35123 107.196L8.0156 101.531L2.35123 107.196V107.206L2.3726 107.228L2.39398 107.249L2.4581 107.313L2.6291 107.473L3.11004 107.901C5.35775 109.785 7.81839 111.399 10.4417 112.71C17.1716 115.992 24.5758 117.653 32.0625 117.562C41.4675 117.562 48.6922 115.211 53.6833 112.71C56.3065 111.399 58.7672 109.785 61.0149 107.901L61.4959 107.473L61.6669 107.313L61.731 107.249L61.7524 107.228L61.763 107.206L56.1094 101.531L61.7737 107.196C62.9243 106.046 63.698 104.574 63.992 102.974C64.2859 101.374 64.0863 99.723 63.4196 98.2395L40.8476 48.0938H42.579C45.8387 48.0938 49.0342 47.2387 51.8664 45.6356L65.6426 37.7589C66.0462 37.5281 66.503 37.4065 66.9679 37.4062H77.4844V138.938H50.7656C48.6397 138.938 46.6009 139.782 45.0977 141.285C43.5945 142.788 42.75 144.827 42.75 146.953C42.75 149.079 43.5945 151.118 45.0977 152.621C46.6009 154.124 48.6397 154.969 50.7656 154.969H120.234C122.36 154.969 124.399 154.124 125.902 152.621C127.405 151.118 128.25 149.079 128.25 146.953C128.25 144.827 127.405 142.788 125.902 141.285C124.399 139.782 122.36 138.938 120.234 138.938H93.5156V37.4062H104.032C104.497 37.4065 104.954 37.5281 105.357 37.7589L119.144 45.6249C121.966 47.2494 125.161 48.0938 128.421 48.0938H130.152L107.58 98.2395C106.914 99.723 106.714 101.374 107.008 102.974C107.302 104.574 108.076 106.046 109.226 107.196L114.891 101.531L109.226 107.196V107.206L109.248 107.228L109.269 107.249L109.333 107.313L109.504 107.473L109.985 107.901C112.233 109.785 114.694 111.399 117.317 112.71C124.047 115.992 131.451 117.653 138.938 117.562C148.343 117.562 155.567 115.211 160.558 112.71C163.182 111.399 165.642 109.785 167.89 107.901L168.371 107.473L168.478 107.367L168.542 107.313L168.606 107.249L168.627 107.228L168.638 107.206L162.984 101.531L168.649 107.196C169.799 106.046 170.573 104.574 170.867 102.974C171.161 101.374 170.961 99.723 170.295 98.2395L147.733 48.0938H152.297C154.423 48.0937 156.462 47.2493 157.965 45.746C159.468 44.2428 160.313 42.204 160.313 40.0781C160.313 37.9522 159.468 35.9134 157.965 34.4102C156.462 32.907 154.423 32.0625 152.297 32.0625H128.421C127.956 32.0622 127.499 31.9407 127.096 31.7098L113.309 23.8438C110.487 22.2296 107.294 21.3787 104.043 21.375H93.5156V8.01562ZM18.1153 98.6136C21.1612 100.056 25.7889 101.531 32.0625 101.531C38.336 101.531 42.9637 100.056 46.0097 98.6136L32.0625 67.6198L18.1153 98.6136ZM124.99 98.6136C128.036 100.056 132.664 101.531 138.938 101.531C145.211 101.531 149.839 100.056 152.885 98.6136L138.938 67.6198L124.99 98.6136Z" fill="white"/>
</svg>
