<svg width="10" height="11" viewBox="0 0 10 11" fill="none" xmlns="http://www.w3.org/2000/svg">
<path d="M8.95674 4.86981C9.08015 5.70206 8.938 6.55203 8.5505 7.29883C8.163 8.04563 7.54988 8.65123 6.79836 9.02949C6.04684 9.40775 5.19519 9.53941 4.36452 9.40575C3.53386 9.27208 2.7665 8.8799 2.17158 8.28497C1.57666 7.69005 1.18447 6.92269 1.05081 6.09203C0.917141 5.26137 1.0488 4.40971 1.42706 3.65819C1.80533 2.90667 2.41092 2.29355 3.15772 1.90605C3.90452 1.51856 4.75449 1.3764 5.58674 1.49981C6.43566 1.6257 7.22159 2.02128 7.82843 2.62812C8.43528 3.23496 8.83085 4.02089 8.95674 4.86981Z" stroke="white" stroke-width="2" stroke-linecap="round" stroke-linejoin="round"/>
</svg>
